<?xml version="1.0" encoding="UTF-8"?>
<svg width="44px" height="44px" viewBox="0 0 44 44" version="1.1" xmlns="http://www.w3.org/2000/svg" xmlns:xlink="http://www.w3.org/1999/xlink">
    <title>验收结果</title>
    <g id="app" stroke="none" stroke-width="1" fill="none" fill-rule="evenodd">
        <g id="新增收料记录-无采购单" transform="translate(-23.000000, -2566.000000)">
            <g id="编组-2备份-2" transform="translate(-1.000000, 2545.000000)">
                <g id="验收结果" transform="translate(24.000000, 21.000000)">
                    <path d="M22.2102122,42.7040899 L6.73387526,42.7040899 C4.69155234,42.6950889 3.03820556,41.0811075 3.028985,39.0874114 L3.028985,5.616695 C3.03820558,3.62299884 4.69155236,2.00901747 6.73387526,1.99999769 L26.2855916,1.99999769 C27.2563354,1.9969518 28.1888084,2.3693355 28.8790147,3.03570168 L36.4066781,10.0389066 C37.1258596,10.7209901 37.5326751,11.6575041 37.5349856,12.6363394 L37.5349856,22.3520532 C37.5349856,23.0329974 36.9695074,23.5850118 36.2719548,23.5850118 C35.5744022,23.5850118 35.008924,23.0329974 35.008924,22.3520532 L35.008924,12.6363394 C35.0109033,12.3267143 34.883139,12.0297565 34.6552754,11.814367 L27.1276121,4.81116208 C26.9058588,4.59031496 26.602382,4.46588949 26.2855916,4.46593367 L6.73387526,4.46593367 C6.0866135,4.47477203 5.56410049,4.98484424 5.55504654,5.616695 L5.55504654,39.0874114 C5.55504654,39.7229593 6.08282614,40.2381727 6.73387526,40.2381727 L22.2102122,40.2381727 C22.9077649,40.2381727 23.473243,40.7901871 23.473243,41.4711313 C23.473243,42.1520756 22.9077649,42.7040899 22.2102122,42.7040899 L22.2102122,42.7040899 Z" id="路径" fill="#0D7EDB" fill-rule="nonzero"></path>
                    <path d="M35.5309767,13.7377824 L26.9255271,13.7377824 C26.4178977,13.7377824 25.9313011,13.5398298 25.5739376,13.1878877 C25.2165741,12.8359457 25.0180685,12.3592089 25.0224862,11.8636853 L25.0224862,4.1371447 C25.0224862,3.45620046 25.5880389,2.90418609 26.2855916,2.90418609 C26.9831442,2.90418609 27.5486223,3.45620046 27.5486223,4.1371447 L27.5486223,11.2718652 L35.5309767,11.2718652 C36.2285294,11.2718652 36.7940075,11.8238795 36.7940075,12.5048238 C36.7940075,13.185768 36.2285294,13.7377824 35.5309767,13.7377824 Z M29.3505462,37.4105876 C28.7959888,37.4115723 28.2634347,37.1988965 27.8685901,36.8187675 L25.3930498,34.451487 C24.9005463,33.9701111 24.9005463,33.1902814 25.3930498,32.7089055 C25.8861666,32.2281283 26.6850165,32.2281283 27.1781333,32.7089055 L29.3673866,34.7967154 L34.6552754,29.536092 C35.1483922,29.0553148 35.9472421,29.0553148 36.4403589,29.536092 C36.9328624,30.0174679 36.9328624,30.7972976 36.4403589,31.2786735 L30.8493427,36.8187675 C30.4622191,37.2140627 29.9275841,37.439431 29.3673866,37.4434666 L29.3505462,37.4105876 Z M28.2896004,18.784693 L10.3040422,18.784693 C9.60648957,18.784693 9.04101143,18.2326786 9.04101143,17.5517343 C9.04101143,16.8707901 9.60648957,16.3187757 10.3040422,16.3187757 L28.2896004,16.3187757 C28.987153,16.3187757 29.5526311,16.8707901 29.5526311,17.5517343 C29.5526311,18.2326786 28.987153,18.784693 28.2896004,18.784693 Z M18.4211199,25.5248667 L10.3040422,25.5248667 C9.60648955,25.5248667 9.04101141,24.9728523 9.04101141,24.2919081 C9.04101141,23.6109638 9.60648955,23.0589494 10.3040422,23.0589494 L18.4211199,23.0589494 C19.1186726,23.0589494 19.6841507,23.6109638 19.6841507,24.2919081 C19.6841507,24.9728523 19.1186726,25.5248667 18.4211199,25.5248667 L18.4211199,25.5248667 Z" id="形状" fill="#0D7EDB" fill-rule="nonzero"></path>
                    <path d="M30.8998639,43 C25.3982398,43 20.9365789,38.649399 20.9303979,33.2787693 C20.9242297,27.9081396 25.3758757,23.5478039 30.8774859,23.5356929 C36.3790961,23.5236323 40.8508003,27.8643654 40.8694438,33.2349678 C40.8783393,35.8217873 39.8319354,38.3056536 37.9613159,40.1379037 C36.0906965,41.9701538 33.5497917,43 30.8998639,43 L30.8998639,43 Z M30.8998639,26.0180501 C26.7890937,26.0453794 23.4793332,29.3205955 23.507266,33.3334907 C23.5351987,37.3463858 26.8902473,40.5773928 31.0010184,40.5501867 C35.1117895,40.5229807 38.421653,37.2478638 38.3938465,33.2349678 C38.3804928,31.3078283 37.5834374,29.4648029 36.1780331,28.1113587 C34.7726288,26.7579145 32.8740062,26.0049256 30.8998639,26.0180501 L30.8998639,26.0180501 Z" id="形状" fill="#0D7EDB" fill-rule="nonzero"></path>
                    <rect id="矩形" fill-opacity="0" fill="#D8D8D8" x="0" y="0" width="44" height="44"></rect>
                </g>
            </g>
        </g>
    </g>
</svg>