<?xml version="1.0" encoding="UTF-8"?>
<svg width="44px" height="44px" viewBox="0 0 44 44" version="1.1" xmlns="http://www.w3.org/2000/svg" xmlns:xlink="http://www.w3.org/1999/xlink">
    <title>车辆信息管理</title>
    <g id="app" stroke="none" stroke-width="1" fill="none" fill-rule="evenodd">
        <g id="新增收料记录-无采购单" transform="translate(-23.000000, -1531.000000)" fill-rule="nonzero">
            <g id="车辆信息管理" transform="translate(45.000000, 1553.000000) scale(-1, 1) translate(-45.000000, -1553.000000) translate(23.000000, 1531.000000)">
                <rect id="矩形" fill="#000000" opacity="0" x="0" y="0" width="44" height="44"></rect>
                <path d="M13.0330357,37.6651786 C10.0305432,37.6651786 7.59973958,35.1758557 7.59973958,32.0968378 C7.59973958,29.0178199 10.0305432,26.528497 13.0330357,26.528497 C16.0355283,26.528497 18.4663318,29.0223214 18.4663318,32.0968378 C18.4618304,35.1713542 16.0310268,37.6606771 13.0330357,37.6651786 Z M13.0330357,29.1798735 C11.4665179,29.1798735 10.1970982,30.4808036 10.1970982,32.0878348 C10.1970982,33.6948661 11.4665179,34.9957961 13.0330357,34.9957961 C14.5995536,34.9957961 15.8689732,33.6948661 15.8689732,32.0878348 C15.8599702,30.4853051 14.5950521,29.193378 13.0330357,29.1888765 L13.0330357,29.1798735 Z M33.2987351,37.6651786 C30.2962426,37.6651786 27.865439,35.1758557 27.865439,32.0968378 C27.865439,29.0178199 30.300744,26.528497 33.2987351,26.528497 C36.3012277,26.528497 38.7320312,29.0223214 38.7320312,32.0968378 C38.7275298,35.1713542 36.2967262,37.6606771 33.2987351,37.6651786 L33.2987351,37.6651786 Z M33.2987351,29.1798735 C31.7322173,29.1798735 30.4627976,30.4808036 30.4627976,32.0878348 C30.4627976,33.6948661 31.7322173,34.9957961 33.2987351,34.9957961 C34.865253,34.9957961 36.1346726,33.6948661 36.1346726,32.0878348 C36.1256696,30.4853051 34.8607515,29.193378 33.2987351,29.1888765 L33.2987351,29.1798735 Z M41.3158854,23.6790551 L30.0486607,23.6790551 L30.0486607,18.0386905 L41.3158854,18.0386905 L41.3158854,23.6790551 L41.3158854,23.6790551 Z M31.7817336,21.9054687 L39.5828125,21.9054687 L39.5828125,19.8212798 L31.7817336,19.8212798 L31.7817336,21.9054687 Z" id="形状" fill="#0D7EDB"></path>
                <path d="M22.6212054,5.65959821 L6.32581845,5.65959821 C5.12842262,5.65959821 3.98504464,6.19977679 3.13876488,7.14508929 C2.29248512,8.09940476 1.81982887,9.38683036 1.81982887,10.7372768 L1.81982887,28.603683 C1.81982887,31.4126116 3.83649554,33.6858631 6.32581845,33.6858631 L10.1205729,33.6858631 L10.1205729,30.7508929 L6.32581845,30.7508929 C5.27247024,30.7508929 4.4171875,29.7875744 4.4171875,28.5991815 L4.4171875,10.7372768 C4.4171875,10.1700893 4.61975446,9.62090774 4.97537202,9.21577381 C5.33098958,8.81514137 5.8171503,8.58556548 6.32581845,8.58556548 L22.6212054,8.58556548 C23.6745536,8.58556548 24.5298363,9.54888393 24.5298363,10.7372768 L24.5298363,28.603683 C24.5298363,29.7920759 23.6745536,30.7553943 22.6212054,30.7553943 L16.8277902,30.7553943 L16.8277902,33.6903646 L22.6167039,33.6903646 C25.1060268,33.6903646 27.122701,31.4171131 27.122701,28.6081845 L27.122701,10.7417783 C27.1271949,7.93735119 25.1105283,5.65959821 22.6212054,5.65959821 L22.6212054,5.65959821 Z" id="路径" fill="#0D7EDB"></path>
                <path d="M23.6610491,30.5663318 L30.0576637,30.5663318 L30.0576637,33.5013021 L23.6610491,33.5013021 L23.6610491,30.5663318 Z M35.3109003,9.85048363 L27.1271949,9.85048363 L27.1271949,12.7854539 L34.3205729,12.7854539 L39.5828125,18.043192 L39.5828125,30.5663318 L36.5488095,30.5663318 L36.5488095,33.5013021 L42.1846726,33.5013021 L42.1846726,16.724256 L35.3109003,9.85048363 Z" id="形状" fill="#0D7EDB"></path>
            </g>
        </g>
    </g>
</svg>