<?xml version="1.0" encoding="UTF-8"?>
<svg width="24px" height="24px" viewBox="0 0 24 24" version="1.1" xmlns="http://www.w3.org/2000/svg" xmlns:xlink="http://www.w3.org/1999/xlink">
    <title>矩形</title>
    <g id="app" stroke="none" stroke-width="1" fill="none" fill-rule="evenodd">
        <g id="移动收料" transform="translate(-425.000000, -799.000000)" fill-rule="nonzero">
            <g id="编组备份" transform="translate(0.000000, 768.000000)">
                <g id="编组-2" transform="translate(425.000000, 31.000000)">
                    <g id="复制">
                        <rect id="矩形" fill="#666666" opacity="0" x="0" y="0" width="24" height="24"></rect>
                        <path d="M14.3578125,7.4015625 L6.93984375,7.4015625 C5.64609375,7.4015625 4.59375,8.45390625 4.59375,9.74765625 L4.59375,17.165625 C4.59375,18.459375 5.64609375,19.5117188 6.93984375,19.5117188 L14.3578125,19.5117188 C15.6515625,19.5117188 16.7039062,18.459375 16.7039062,17.165625 L16.7039062,9.74765625 C16.7039062,8.45390625 15.6515625,7.4015625 14.3578125,7.4015625 Z M15.2625,17.1632812 C15.2625,17.6625 14.8570313,18.0679687 14.3578125,18.0679687 L6.93984375,18.0679687 C6.440625,18.0679687 6.03515625,17.6625 6.03515625,17.1632812 L6.03515625,9.74765625 C6.03515625,9.2484375 6.440625,8.84296875 6.93984375,8.84296875 L14.3578125,8.84296875 C14.8570313,8.84296875 15.2625,9.2484375 15.2625,9.74765625 L15.2625,17.1632812 Z" id="形状" fill="#606266"></path>
                        <path d="M19.509375,14.5757812 L19.509375,7.20703125 L19.5070312,7.20703125 L19.5070312,7.0125 C19.5070312,5.690625 18.43125,4.61484375 17.109375,4.61484375 L9.4875,4.61484375 C9.4640625,4.61484375 9.44296875,4.6171875 9.41953125,4.6171875 L9.403125,4.6171875 C9.384375,4.61484375 9.365625,4.61484375 9.3421875,4.61484375 C8.934375,4.61484375 8.60390625,4.9453125 8.60390625,5.353125 C8.60390625,5.75859375 8.934375,6.0890625 9.33984375,6.09140625 L9.55078125,6.09375 L17.1117188,6.09375 C17.6179687,6.09375 18.0304688,6.50625 18.0304688,7.0125 L18.0304688,14.5757812 C18.0304688,14.6179687 18.0304688,14.6578125 18.0328125,14.6976562 C18.0328125,14.7375 18.0351562,14.7773437 18.0351562,14.8171875 C18.0375,15.2203125 18.3679688,15.5507812 18.7734375,15.5507812 C19.18125,15.5507812 19.5117188,15.2203125 19.5117188,14.8125 C19.5117188,14.7914062 19.509375,14.7632812 19.5070313,14.7398437 L19.5070313,14.7164062 C19.5070313,14.6625 19.509375,14.6179687 19.509375,14.5757812 L19.509375,14.5757812 Z" id="路径" fill="#606266"></path>
                    </g>
                    <rect id="矩形" fill="#666666" opacity="0" x="0" y="0" width="24" height="24"></rect>
                    <path d="M14.3578125,7.4015625 L6.93984375,7.4015625 C5.64609375,7.4015625 4.59375,8.45390625 4.59375,9.74765625 L4.59375,17.165625 C4.59375,18.459375 5.64609375,19.5117188 6.93984375,19.5117188 L14.3578125,19.5117188 C15.6515625,19.5117188 16.7039063,18.459375 16.7039063,17.165625 L16.7039063,9.74765625 C16.7039063,8.45390625 15.6515625,7.4015625 14.3578125,7.4015625 Z M15.2625,17.1632813 C15.2625,17.6625 14.8570313,18.0679688 14.3578125,18.0679688 L6.93984375,18.0679688 C6.440625,18.0679688 6.03515625,17.6625 6.03515625,17.1632813 L6.03515625,9.74765625 C6.03515625,9.2484375 6.440625,8.84296875 6.93984375,8.84296875 L14.3578125,8.84296875 C14.8570313,8.84296875 15.2625,9.2484375 15.2625,9.74765625 L15.2625,17.1632813 Z" id="形状" fill="#606266"></path>
                    <path d="M19.509375,14.5757812 L19.509375,7.20703125 L19.5070312,7.20703125 L19.5070312,7.0125 C19.5070312,5.690625 18.43125,4.61484375 17.109375,4.61484375 L9.4875,4.61484375 C9.4640625,4.61484375 9.44296875,4.6171875 9.41953125,4.6171875 L9.403125,4.6171875 C9.384375,4.61484375 9.365625,4.61484375 9.3421875,4.61484375 C8.934375,4.61484375 8.60390625,4.9453125 8.60390625,5.353125 C8.60390625,5.75859375 8.934375,6.0890625 9.33984375,6.09140625 L9.55078125,6.09375 L17.1117187,6.09375 C17.6179687,6.09375 18.0304687,6.50625 18.0304687,7.0125 L18.0304687,14.5757812 C18.0304687,14.6179687 18.0304687,14.6578125 18.0328125,14.6976562 C18.0328125,14.7375 18.0351562,14.7773437 18.0351562,14.8171875 C18.0375,15.2203125 18.3679687,15.5507812 18.7734375,15.5507812 C19.18125,15.5507812 19.5117187,15.2203125 19.5117187,14.8125 C19.5117187,14.7914062 19.509375,14.7632812 19.5070312,14.7398437 L19.5070312,14.7164062 C19.5070312,14.6625 19.509375,14.6179687 19.509375,14.5757812 L19.509375,14.5757812 Z" id="路径" fill="#606266"></path>
                </g>
            </g>
        </g>
    </g>
</svg>