<?xml version="1.0" encoding="UTF-8"?>
<svg width="32px" height="32px" viewBox="0 0 32 32" version="1.1" xmlns="http://www.w3.org/2000/svg" xmlns:xlink="http://www.w3.org/1999/xlink">
    <title>计划使用部位</title>
    <g id="app" stroke="none" stroke-width="1" fill="none" fill-rule="evenodd">
        <g id="采购单" transform="translate(-26.000000, -624.000000)" fill-rule="nonzero">
            <g id="编组" transform="translate(0.000000, 282.000000)">
                <g id="计划使用部位" transform="translate(26.000000, 342.000000)">
                    <rect id="矩形" fill="#000000" opacity="0" x="0" y="0" width="32" height="32"></rect>
                    <path d="M26.2669491,2.00000402 C28.1487349,1.99726484 29.7384653,3.39541246 29.9760151,5.26214642 C30.213565,7.12888039 29.0246711,8.88061977 27.2021574,9.34920232 L27.2021574,22.6511876 C28.9632693,23.1078794 30.138732,24.7675423 29.985039,26.5804022 C29.831346,28.3932621 28.3932581,29.83135 26.5803982,29.985043 C24.7675383,30.138736 23.1078754,28.9632733 22.6511835,27.2021614 L9.3491983,27.2021614 C8.8932286,28.9634603 7.23404802,30.1396034 5.42112538,29.9866539 C3.60820275,29.8337044 2.16952526,28.3962066 2.01508859,26.5834101 C1.86065193,24.7706135 3.03543352,23.1104687 4.79635773,22.6530542 L4.79635773,9.34733564 C3.03524585,8.89064375 1.85978316,7.23098086 2.01347617,5.41812097 C2.16716919,3.60526108 3.60525707,2.16717321 5.41811695,2.01348019 C7.23097684,1.85978718 8.89063974,3.03524987 9.34733162,4.79636174 L22.6530502,4.79636174 C23.079999,3.14982437 24.565958,2.00000402 26.2669491,2.00000402 Z M5.96676816,24.4152033 L5.73343274,24.4002698 L5.45716361,24.4189366 L5.26302855,24.4600037 L5.15476092,24.4917373 L4.96809259,24.5626713 C4.19996547,24.9076459 3.75788939,25.72417 3.8889061,26.5559521 C4.0199228,27.3877341 4.69159311,28.0288284 5.528573,28.1209774 C6.36555289,28.2131264 7.16060965,27.7335145 7.46944822,26.9501592 L7.54038218,26.7373573 L7.5721158,26.5880226 C7.59078263,26.4834884 7.60011605,26.3770874 7.60011605,26.2669531 L7.58144922,25.990684 L7.54038218,25.7965489 L7.4713149,25.583747 L7.36678064,25.3634784 L7.4377146,25.5053463 C7.23789563,25.0590743 6.87142139,24.7086794 6.41663883,24.529071 L6.20383694,24.4600037 L6.08623589,24.4338701 L5.96676816,24.4152033 Z M26.5002845,24.4152033 L26.2669491,24.4002698 L25.99068,24.4189366 L25.7965449,24.4600037 L25.583743,24.529071 L25.3634744,24.6336052 L25.5053423,24.5626713 C25.0590703,24.7624902 24.7086753,25.1289645 24.5290669,25.583747 L24.4842665,25.7144149 L24.4599997,25.7965489 L24.428266,25.9458836 C24.4095992,26.0504178 24.4002658,26.1568188 24.4002658,26.2669531 L24.4189326,26.5432222 L24.4599997,26.7373573 L24.5290669,26.9501592 L24.6336012,27.1704278 L24.5626672,27.0285599 C24.9068002,27.7975498 25.7233778,28.2407235 26.5556879,28.110214 C27.387998,27.9797045 28.0297365,27.3078611 28.1219788,26.4704458 C28.2142211,25.6330306 27.7341032,24.8376133 26.9501552,24.529071 L26.7373533,24.4600037 L26.6197522,24.4338701 L26.5002845,24.4152033 L26.5002845,24.4152033 Z M22.6511835,6.66677841 L9.3491983,6.66677841 C9.00835458,7.98159956 7.98159554,9.0083586 6.6667744,9.34920232 L6.6667744,22.6511876 C7.98159554,22.9920313 9.00835458,24.0187903 9.3491983,25.3336115 L22.6511835,25.3336115 C22.9920273,24.0187903 24.0187863,22.9920313 25.3336074,22.6511876 L25.3336074,9.34920232 C24.1273601,9.03554521 23.1565526,8.14173031 22.7445177,6.96544774 L22.6530502,6.6686451 L22.6511835,6.66677841 Z M5.73343274,3.86675325 C4.83770299,3.86814762 4.06923058,4.50559385 3.90234096,5.38564021 C3.73545134,6.26568658 4.21719589,7.14022058 5.05022665,7.46945224 L5.26302855,7.5403862 L5.38249628,7.56651977 L5.50196401,7.5851866 L5.73343274,7.60012007 L6.00970187,7.58145323 L6.20383694,7.5403862 L6.41663883,7.47131892 L6.63690746,7.36678465 L6.49503953,7.43771862 C6.93931016,7.23985019 7.2921133,6.87211358 7.4713149,6.41664285 L7.54038218,6.20384095 L7.5721158,6.05450629 C7.59078263,5.94997203 7.60011605,5.84357108 7.60011605,5.73343676 L7.58144922,5.45716763 L7.54038218,5.26303257 L7.51798198,5.1808985 L7.4713149,5.05023067 L7.4377146,4.96996329 C7.13673704,4.29844139 6.46931931,3.86641085 5.73343274,3.86675325 Z M26.2669491,3.86675346 C25.5001231,3.867225 24.8115918,4.33661083 24.5309336,5.05023067 L24.4842665,5.1808985 L24.4599997,5.26303257 L24.428266,5.41236723 C24.4095992,5.5169015 24.4002658,5.62330245 24.4002658,5.73343676 L24.4189326,6.00970589 L24.4599997,6.20384095 L24.5290669,6.41664285 L24.6336012,6.63691148 L24.5626672,6.49504355 C24.7605357,6.93931418 25.1282723,7.29211732 25.583743,7.47131892 L25.7965449,7.5403862 L25.9160126,7.56651977 L26.0354804,7.5851866 L26.2669491,7.60012007 L26.5432182,7.58145323 L26.7373533,7.5403862 L26.9501552,7.47131892 L27.1704238,7.36678465 L27.0285559,7.43771862 C27.8328313,7.07834093 28.2763951,6.20561052 28.0926483,5.34407217 C27.9089015,4.48253382 27.1478641,3.86675346 26.2669491,3.86675346 L26.2669491,3.86675346 Z" id="形状" stroke="#0D7EDB" stroke-width="0.3" fill="#0D7EDB"></path>
                </g>
            </g>
        </g>
    </g>
</svg>