<svg xmlns="http://www.w3.org/2000/svg" viewBox="0 0 44 44" class="design-iconfont">
  <path d="M6.15862514,26.3802057 L6.15862514,35.8647886 C6.15862514,37.0162971 7.09733371,37.9617371 8.25557371,37.96152 L8.25557371,37.96152 L16.6872309,37.96152 L16.6872309,41.1202971 L5.817928,41.1202971 C4.26166514,41.1202971 3.00006514,39.8591314 3.00006514,38.3022171 L3.00006514,38.3022171 L3.00006514,26.3802057 L6.15862514,26.3802057 Z M40.9030891,26.3802057 L40.9030891,38.3024343 C40.9030891,39.8586971 39.6419234,41.1202971 38.0852263,41.1202971 L38.0852263,41.1202971 L27.2159234,41.1202971 L27.2159234,37.9617371 L35.6475806,37.9617371 C36.7993063,37.9617371 37.7445291,37.0228114 37.7445291,35.8647886 L37.7445291,35.8647886 L37.7445291,26.3802057 L40.9030891,26.3802057 Z M39.9087486,20.0629337 C40.4579029,20.0629337 40.9030457,20.5022137 40.9030457,21.0624423 L40.9030457,21.0624423 L40.9030457,22.2222023 C40.9030457,22.7741794 40.4509543,23.2217109 39.9087486,23.2217109 L39.9087486,23.2217109 L3.99440571,23.2217109 C3.44503429,23.2217109 2.99989143,22.7824309 2.99989143,22.2222023 L2.99989143,22.2222023 L2.99989143,21.0624423 C2.99989143,20.510248 3.45198286,20.0629337 3.99440571,20.0629337 L3.99440571,20.0629337 Z M16.6872309,3.21712114 L16.6872309,6.37568114 L8.25557371,6.37568114 C7.103848,6.37568114 6.15862514,7.31460686 6.15862514,8.47262971 L6.15862514,8.47262971 L6.15862514,15.8513611 L3.00006514,15.8513611 L3.00006514,6.034984 C3.00006514,4.47872114 4.26123086,3.21712114 5.817928,3.21712114 L5.817928,3.21712114 L16.6872309,3.21712114 Z M38.0851611,3.21712114 C39.641424,3.21712114 40.903024,4.47828686 40.903024,6.034984 L40.903024,6.034984 L40.903024,15.8515783 L37.744464,15.8515783 L37.744464,8.47262971 C37.744464,7.32112114 36.8057554,6.37568114 35.6475154,6.37568114 L35.6475154,6.37568114 L27.2158583,6.37568114 L27.2158583,3.21712114 Z" fill="#abadb2" fill-rule="evenodd"/>
</svg>
